# xmcd
#
# Track frame offsets:
#	150
#	15428
#	31807
#	48002
#	61611
#	80268
#	94776
#	114061
#	131136
#	152518
#	171195
#	188642
#	206353
#
# Disc length: 2961 seconds
#
# Revision: 1
# Processed by: cddbd v1.5.2PL0 Copyright (c) Steve Scherf et al.
# Submitted via: audiograbber 1.83.01
#
DISCID=8a0b8f0d
DTITLE=Sunday Wilde - He Gave Me a Blue Nightgown
DYEAR=2012
DGENRE=Blues
TTITLE0=Down the Road Alone
TTITLE1=Captured Me
TTITLE2=No Matter How Far
TTITLE3=Shaken Down
TTITLE4=Love Bender
TTITLE5=Sunday's Loverman
TTITLE6=There Was a Time
TTITLE7=Telling Me to Hush?
TTITLE8=He Thrills Me Up
TTITLE9=Joy Can't You Shine
TTITLE10=I Guess I Didn't Hear You Right
TTITLE11=Amazing Grace
TTITLE12=Blue Spirit Blues
EXTD=
EXTT0=
EXTT1=
EXTT2=
EXTT3=
EXTT4=
EXTT5=
EXTT6=
EXTT7=
EXTT8=
EXTT9=
EXTT10=
EXTT11=
EXTT12=
PLAYORDER=
